<svg width="1510" height="212" viewBox="0 0 1510 212" fill="none" xmlns="http://www.w3.org/2000/svg">
<g clip-path="url(#clip0_96_7021)">
<path d="M596.879 60.0712C597.134 59.797 597.393 59.527 597.657 59.2613C606.74 50.0609 621.345 40.2293 634.648 40.6518C672.221 41.845 668.686 76.2488 668.688 103.118L668.725 158.441C656.902 158.246 644.643 158.429 632.786 158.453L632.828 112.303C632.854 88.6354 635.757 54.8678 600.53 77.4288C601.181 100.594 600.6 126.589 600.609 149.981C600.705 152.874 600.657 154.754 600.436 157.64C598.324 158.899 569.405 158.459 564.494 158.455C564.716 143.625 566.926 84.6618 561.053 75.4715C559.463 72.9838 556.832 71.267 553.962 70.6392C546.231 68.9475 538.682 73.3102 532.454 77.3265C532.348 104.359 532.385 131.393 532.567 158.425C520.548 158.306 508.379 158.43 496.348 158.461C497.26 121.852 496.598 80.8186 496.351 43.9537L532.655 43.8577L532.295 56.2798C542.257 48.0093 549.297 42.7637 562.387 40.7808C580.479 40.6774 587.466 45.0204 596.879 60.0712Z" fill="#4485B6"/>
<path d="M932.207 40.8024C936.203 40.5505 940.205 40.4378 944.208 40.4649C989.741 40.4843 995.955 71.2733 995.815 108.172L917.324 108.202C919.3 120.427 923.605 129.898 936.512 133.901C948.321 137.564 964.354 136.02 975.507 130.88C980.756 128.459 986.078 124.621 991.422 121.892L993.221 123.056C994.186 126.798 993.759 146.558 993.7 151.923C955.014 168.477 890.522 167.743 882.561 114.403C877.091 77.7148 892.74 46.3846 932.207 40.8024ZM917.317 86.3192L938.753 86.2345L960.573 86.1926C959.187 74.0895 954.631 62.3198 940.117 62.8127C925.315 64.105 918.695 71.6821 917.317 86.3192Z" fill="#4485B6"/>
<path d="M414.454 40.8187C431.584 39.6096 450.162 40.0529 463.41 52.7243C479.14 67.7686 478.346 88.2012 478.783 108.158C455.113 107.076 423.83 108.016 399.765 108.056C400.222 110.72 400.733 113.227 401.509 115.824C403.486 122.69 408.181 128.455 414.508 131.788C426.179 138.029 446.186 136.463 458.07 130.985C463.427 128.515 469.431 123.622 475.169 121.886C477.132 124.255 476.505 147.189 476.624 151.961C437.947 168.366 373.045 167.765 365.201 114.046C359.831 77.2685 375.039 47.473 414.454 40.8187ZM422.015 86.2321L443.461 86.2107C442.439 73.8949 437.337 62.4352 423.069 62.7819C420.178 63.0483 418.265 63.5195 415.445 64.0682C407.637 65.588 398.573 77.984 400.689 85.9156C403.402 86.8703 418.416 86.2681 422.015 86.2321Z" fill="#4485B6"/>
<path d="M199.516 40.8047C243.669 40.9822 239.542 74.9228 239.464 107.602C239.351 124.546 239.369 141.489 239.521 158.433C227.6 158.267 215.336 158.435 203.389 158.457C203.698 143.023 205.846 87.3249 199.786 77.0826C197.893 73.8842 195.016 71.5796 191.388 70.6636C183.228 68.6036 174.741 73.2202 167.952 77.2431L168.022 158.432C155.99 158.381 143.959 158.393 131.928 158.468L131.942 43.9393L168.046 43.8807L167.796 56.1712C176.909 47.9928 187.253 42.3407 199.516 40.8047Z" fill="#4485B6"/>
<path d="M1363.45 1.55879C1369.37 1.3795 1370.23 0.666361 1373.38 5.975C1380.48 17.9166 1386.87 30.2428 1393.72 42.3399L1440.74 125.628C1446.39 135.658 1454.87 152.041 1460.89 161.109C1447.46 161.212 1434.03 161.171 1420.6 160.984C1417.4 156.639 1404.9 134.165 1402.45 129.205L1382.33 129.125C1353.48 129.105 1320.31 130.081 1292.01 128.996C1293.54 124.813 1303.2 108.329 1305.85 103.652L1388.76 103.694C1379.04 87.5961 1370.31 70.3961 1360.64 54.2216C1356.1 46.6397 1351.08 37.9495 1347.23 30.0324C1351.72 21.9035 1358.45 9.01904 1363.45 1.55879Z" fill="#FEFEFE"/>
<path d="M300.958 41.4445C320.273 40.5438 332.904 41.3178 350.952 49.2002L350.963 79.6956C337.515 73.073 327.841 63.9116 311.182 65.3732C305.174 65.9001 293.846 68.3513 294.312 76.4486C298.873 88.6982 334.465 85.8318 346.039 98.5673C351.962 103.94 355.702 110.277 356.129 118.696C357.624 148.182 331.221 159.536 307.224 161.301C287.558 161.699 275.977 159.91 257.928 152.325L257.921 120.458C274.531 129.976 285.904 139.652 307.076 136.304C311.972 135.53 322.083 131.586 319.576 125.348C315.8 115.958 294.304 116.271 285.837 112.621C280.363 110.367 276.698 109.872 271.857 106.186C256.68 96.6438 253.786 74.8763 263.901 60.5083C272.86 47.7821 286.227 44.1335 300.958 41.4445Z" fill="#4485B6"/>
<path d="M1321.21 1.64202C1334.15 1.70155 1347.09 1.69457 1360.04 1.62109C1355.32 10.8923 1349.72 19.9894 1344.75 29.1515C1314.44 85.011 1280.95 140.032 1251.17 196.129L1244.36 207.983C1240.02 202.321 1227.19 178.669 1223.22 171.688L1287.75 59.2596L1308.83 22.4625C1312.28 16.4436 1317.28 7.09699 1321.21 1.64202Z" fill="#FEFEFE"/>
<path d="M1141.5 103.728L1180.92 103.715C1190.86 119.719 1201.24 138.726 1210.68 155.188C1221 173.174 1232.86 193.169 1242.38 211.461C1233.8 210.59 1211.06 211.282 1201.61 211.451L1163.61 143.734C1156.7 131.399 1147.48 116.088 1141.5 103.728Z" fill="#FEFEFE"/>
<path d="M1097.7 0H1172.57C1179.31 1.80046 1194 1.61637 1202.78 3.54658C1235.2 9.2393 1238.65 44.7935 1237.73 72.175C1236.7 103.008 1243.4 135.93 1213.43 154.81C1207.87 144.289 1200.98 132.956 1194.93 122.589C1202.04 107.14 1204.52 47.5334 1193.81 38.6744C1178.88 26.3158 1085.61 25.7612 1069.6 39.126C1060.06 47.0881 1060.66 116.391 1069.96 123.515C1086.68 136.311 1132.99 132.512 1154.61 132.425L1170.93 162.044C1154.59 162.851 1136.79 162.671 1120.27 162.667C1102.35 162.673 1085.12 162.466 1067.41 160.261C1024.53 154.925 1025.35 118.787 1025.26 84.3495C1025.23 67.6271 1024.87 53.7235 1028.24 36.7124C1033.93 7.98033 1056.03 3.24779 1081.41 1.16367C1086.54 0.77684 1092.62 0.943798 1097.7 0Z" fill="#FEFEFE"/>
<path d="M695.411 0H731.24L731.254 55.5079C735.439 52.0459 739.555 48.9094 744.347 46.2881C753.996 40.8491 766.999 38.8463 777.68 42.2149C804.255 50.6896 809.385 83.7076 807.557 107.697C806.149 126.105 797.082 146.518 780.143 155.481C767.832 161.996 751.6 162.228 739.054 156.254C736.836 155.199 734.507 154.339 732.155 153.61C729.243 154.428 731.888 155.331 729.175 158.184C723.961 158.976 701.936 158.438 695.166 158.457C695.705 141.492 695.321 122.491 695.319 105.371L695.411 0ZM731.354 74.5887C731.185 93.7533 731.165 112.919 731.294 132.083C738.936 134.357 747.841 136.069 755.448 132.618C762.731 128.381 767.913 122.673 769.454 114.2C773.243 93.3308 773.014 66.9717 744.907 69.4313C739.961 70.3499 735.805 72.297 731.354 74.5887Z" fill="#4485B6"/>
<path d="M0 92.9228C2.14836 80.3037 4.71802 69.8252 13.0217 59.9857C27.9248 42.3264 52.7296 37.4017 74.7804 41.3186C112.051 47.9392 114.058 78.5819 113.97 108.115C88.4618 107.899 61.3581 107.686 35.8491 108.057C38.4839 134.921 60.0299 138.109 82.2668 134.355C92.9355 132.554 101.349 125.286 111.035 122.437C112.585 124.532 111.799 147.572 111.869 151.836C78.3474 166.463 22.6636 168.68 4.91843 128.721C2.10957 122.395 1.36975 117.438 0 110.735V92.9228ZM35.8892 86.2102L57.8658 86.2345L78.8546 86.2058C77.1724 73.6176 73.6347 62.864 58.4885 62.8242C44.4324 64.2621 36.5796 71.7327 35.8892 86.2102Z" fill="#4485B6"/>
<path d="M827.032 0H862.873C863.683 52.0364 862.909 106.203 862.924 158.419C851.019 158.294 838.908 158.432 826.988 158.455L827.032 0Z" fill="#4485B6"/>
<path d="M1477.92 48.6289L1509.67 48.6743V161.04L1477.93 161.132C1476.99 125.213 1477.75 84.8487 1477.92 48.6289Z" fill="#FEFEFE"/>
<path d="M1477.9 0.971694C1488.49 0.798892 1499.08 0.812517 1509.67 1.01255V27.4207C1501.61 28.075 1486.5 27.7297 1477.92 27.8048C1477.71 19.1709 1477.89 9.6737 1477.9 0.971694Z" fill="#FEFEFE"/>
</g>
<defs>
<clipPath id="clip0_96_7021">
<rect width="1509.67" height="212" fill="white"/>
</clipPath>
</defs>
</svg>
